<svg xmlns="http://www.w3.org/2000/svg" viewBox="0 0 520 320" fill="none">
  <defs>
    <linearGradient id="dashBg" x1="80" y1="44" x2="430" y2="288" gradientUnits="userSpaceOnUse">
      <stop stop-color="#60A5FA" stop-opacity=".34"/>
      <stop offset="1" stop-color="#22D3EE" stop-opacity=".14"/>
    </linearGradient>
    <linearGradient id="dashLine" x1="120" y1="104" x2="380" y2="232" gradientUnits="userSpaceOnUse">
      <stop stop-color="#CFE6FF"/>
      <stop offset="1" stop-color="#8BE5FF"/>
    </linearGradient>
  </defs>
  <rect x="30" y="34" width="460" height="252" rx="28" fill="#081321"/>
  <rect x="30.75" y="34.75" width="458.5" height="250.5" rx="27.25" stroke="#29415F" stroke-opacity=".68" stroke-width="1.5"/>
  <rect x="54" y="58" width="180" height="78" rx="18" fill="#0C1B30"/>
  <rect x="250" y="58" width="104" height="78" rx="18" fill="#0C1B30"/>
  <rect x="370" y="58" width="96" height="78" rx="18" fill="#0C1B30"/>
  <rect x="54" y="154" width="412" height="108" rx="22" fill="url(#dashBg)"/>
  <path d="M86 216h56l38-44 52 58 48-28 42 18 54-54 58 32" stroke="url(#dashLine)" stroke-width="10" stroke-linecap="round" stroke-linejoin="round"/>
  <circle cx="86" cy="216" r="10" fill="#E0F2FE"/>
  <circle cx="180" cy="172" r="10" fill="#93C5FD"/>
  <circle cx="232" cy="230" r="10" fill="#67E8F9"/>
  <circle cx="280" cy="202" r="10" fill="#BFDBFE"/>
  <circle cx="322" cy="220" r="10" fill="#7DD3FC"/>
  <circle cx="376" cy="166" r="10" fill="#BAE6FD"/>
  <circle cx="434" cy="198" r="10" fill="#67E8F9"/>
  <rect x="72" y="76" width="88" height="10" rx="5" fill="#DCEBFF"/>
  <rect x="72" y="95" width="58" height="10" rx="5" fill="#6E87A6"/>
  <rect x="264" y="76" width="54" height="10" rx="5" fill="#DCEBFF"/>
  <rect x="264" y="95" width="36" height="10" rx="5" fill="#6E87A6"/>
  <rect x="384" y="76" width="45" height="10" rx="5" fill="#DCEBFF"/>
  <rect x="384" y="95" width="30" height="10" rx="5" fill="#6E87A6"/>
</svg>
